<svg width="19" height="33" viewBox="0 0 19 33" fill="none" xmlns="http://www.w3.org/2000/svg">
<path d="M11.2407 32.0626H6.10616C5.24853 32.0626 4.55088 31.365 4.55088 30.5073V18.9261H1.55528C0.697652 18.9261 0 18.2282 0 17.3708V12.4083C0 11.5506 0.697652 10.853 1.55528 10.853H4.55088V8.36791C4.55088 5.90386 5.32461 3.80749 6.78816 2.30577C8.25832 0.797211 10.3129 0 12.7297 0L16.6455 0.00636005C17.5017 0.00782779 18.1981 0.705479 18.1981 1.56164V6.16928C18.1981 7.02691 17.5007 7.72456 16.6433 7.72456L14.0068 7.72554C13.2028 7.72554 12.998 7.88674 12.9543 7.93615C12.8821 8.0181 12.7962 8.24975 12.7962 8.88943V10.8527H16.4452C16.7199 10.8527 16.9861 10.9205 17.2148 11.0482C17.7082 11.3239 18.0149 11.8452 18.0149 12.4085L18.013 17.3711C18.013 18.2282 17.3153 18.9259 16.4577 18.9259H12.7962V30.5073C12.7962 31.365 12.0983 32.0626 11.2407 32.0626ZM6.43053 30.183H10.9163V18.0846C10.9163 17.512 11.3823 17.0462 11.9547 17.0462H16.1333L16.135 12.7326H11.9545C11.3821 12.7326 10.9163 12.2669 10.9163 11.6942V8.88943C10.9163 8.15509 10.9909 7.31996 11.5453 6.69227C12.215 5.93346 13.2705 5.84589 14.0064 5.84589L16.3185 5.84491V1.88552L12.7282 1.87965C8.84418 1.87965 6.43053 4.36595 6.43053 8.36791V11.6942C6.43053 12.2666 5.96478 12.7326 5.39237 12.7326H1.87965V17.0462H5.39237C5.96478 17.0462 6.43053 17.512 6.43053 18.0846V30.183ZM16.6419 1.88601H16.6421H16.6419Z" fill="white"/>
</svg>
