<svg width="32" height="26" viewBox="0 0 32 26" fill="none" xmlns="http://www.w3.org/2000/svg">
<path d="M20.9254 11.5619L13.8559 7.69376C13.4494 7.47135 12.9689 7.47965 12.5705 7.71574C12.1718 7.95206 11.934 8.36954 11.934 8.83292V16.5028C11.934 16.964 12.1704 17.3807 12.5664 17.6173C12.7731 17.7408 13.0024 17.8029 13.2321 17.8029C13.4426 17.8029 13.6535 17.7509 13.8476 17.6464L20.9174 13.8449C21.3371 13.619 21.599 13.1828 21.601 12.706C21.6027 12.2291 21.3439 11.7909 20.9254 11.5619ZM13.8093 15.538V9.80557L19.0929 12.6967L13.8093 15.538Z" fill="white"/>
<path d="M31.7645 6.59544L31.7631 6.58079C31.736 6.32322 31.4662 4.03221 30.3524 2.86694C29.0651 1.49634 27.6056 1.32983 26.9037 1.25C26.8456 1.24341 26.7924 1.2373 26.7448 1.23096L26.6889 1.2251C22.4584 0.91748 16.0695 0.875488 16.0056 0.875244L15.9999 0.875L15.9943 0.875244C15.9304 0.875488 9.54147 0.91748 5.27293 1.2251L5.21653 1.23096C5.17112 1.23706 5.12107 1.24267 5.06663 1.24902C4.37279 1.3291 2.92894 1.49585 1.63793 2.91601C0.577146 4.06884 0.270507 6.31077 0.239013 6.56272L0.235351 6.59544C0.225829 6.70261 0 9.25412 0 11.8156V14.2102C0 16.7717 0.225829 19.3232 0.235351 19.4306L0.23706 19.4467C0.264159 19.7001 0.533689 21.9491 1.64233 23.1149C2.85277 24.4396 4.38328 24.6149 5.20652 24.7091C5.33665 24.724 5.44871 24.7367 5.52512 24.7502L5.5991 24.7604C8.04172 24.9928 15.7001 25.1073 16.0248 25.112L16.0346 25.1122L16.0444 25.112C16.1083 25.1117 22.497 25.0697 26.7274 24.7621L26.7833 24.7563C26.8368 24.7492 26.8969 24.7428 26.9628 24.736C27.6527 24.6627 29.0888 24.5106 30.3619 23.1098C31.4227 21.9567 31.7296 19.7148 31.7609 19.4631L31.7645 19.4303C31.774 19.3229 32.0001 16.7717 32.0001 14.2102V11.8156C31.9999 9.25412 31.774 6.70286 31.7645 6.59544ZM30.1246 14.2102C30.1246 16.581 29.9176 19.0226 29.8981 19.2468C29.8185 19.8642 29.495 21.2826 28.9782 21.8444C28.1813 22.7211 27.3627 22.808 26.765 22.8713C26.6928 22.8788 26.6259 22.8861 26.5653 22.8937C22.4735 23.1896 16.3259 23.235 16.0427 23.2367C15.725 23.2321 8.17868 23.1166 5.81052 22.8966C5.68919 22.8769 5.55808 22.8617 5.4199 22.8461C4.71898 22.7658 3.75951 22.6559 3.02172 21.8444L3.00438 21.8258C2.49657 21.2968 2.18236 19.9704 2.10253 19.2541C2.08764 19.0846 1.87524 16.6142 1.87524 14.2102V11.8156C1.87524 9.44748 2.08178 7.00852 2.1018 6.77976C2.19677 6.05247 2.52636 4.71996 3.02172 4.18138C3.843 3.27807 4.70897 3.17797 5.28172 3.11181C5.3364 3.10546 5.38743 3.0996 5.43455 3.0935C9.5859 2.79613 15.7778 2.75195 15.9999 2.75024C16.2221 2.7517 22.4118 2.79613 26.5263 3.0935C26.5768 3.09984 26.632 3.10619 26.6913 3.11303C27.2804 3.18017 28.1708 3.28173 28.9879 4.15331L28.9955 4.16136C29.5033 4.69041 29.8175 6.04002 29.8973 6.77073C29.9115 6.93064 30.1246 9.40646 30.1246 11.8156V14.2102Z" fill="white"/>
</svg>
